<svg id="Capa_1" enable-background="new 0 0 512.017 512.017" height="512" viewBox="0 0 512.017 512.017" width="512" xmlns="http://www.w3.org/2000/svg"><g><path d="m108.545 249.347-8.046 4.646 4.646 8.046c11.224 19.439 36.169 26.124 55.61 14.9l8.046-4.646-4.646-8.046c-11.223-19.44-36.168-26.125-55.61-14.9z"/><path d="m164.835 134.58c.103-21.977 3.695-43.64 10.478-64.839-5.598-3.995-11.45-7.827-17.56-11.484-8.169-4.89-18.768-1.021-21.879 7.962-6.936 20.031-11.163 39.687-12.703 58.837 13.491 4.676 27.422 7.876 41.664 9.524z"/><path d="m347.167 134.581c13.743-1.59 27.523-4.618 41.679-9.525-1.541-19.151-5.767-38.807-12.703-58.837-3.115-8.996-13.723-12.845-21.879-7.962-6.114 3.66-11.97 7.495-17.572 11.493 7.12 22.252 10.385 43.811 10.475 64.831z"/><path d="m194.84 136.143c21.945 1.458 43.223 9.197 61.168 22.817 17.978-13.644 39.27-21.364 61.176-22.817.159-48.265-19.412-93.515-49.534-130.594-6.003-7.391-17.291-7.379-23.285 0-30.227 37.21-49.709 82.47-49.525 130.594z"/><path d="m347.862 264.246-4.646 8.046 8.046 4.646c19.438 11.222 44.385 4.539 55.61-14.9l4.646-8.046-8.046-4.646c-19.44-11.223-44.386-4.539-55.61 14.9z"/><path d="m491.778 118.828-88.375 32.878c-25.542 9.494-51.96 14.18-78.734 14.18-26.385 0-52.221 12.426-68.66 35.863-15.608-22.476-41.258-35.863-68.66-35.863-21.13 0-42.67-2.946-64.254-9.358 0 .832-43.346-15.561-102.855-37.701-10.818-4.023-21.972 5.206-20.014 16.6l24.239 141.023c7.696 44.908 42.747 80.765 88.544 88.946v131.61c0 8.284 6.716 15 15 15s15-6.716 15-15v-130.491c18.494-1.89 36.487-8.546 52.271-19.813l40.695-29.077c7.781-5.555 14.575-12.465 20.034-20.3 5.46 7.836 12.252 14.744 20.03 20.296l40.705 29.083c65.401 46.69 157.231 8.965 170.809-70.247l24.24-141.03c1.954-11.373-9.177-20.629-20.015-16.599zm-294.987 171.945-21.037 12.146c-33.914 19.582-77.082 7.91-96.59-25.88l-12.146-21.037c-4.142-7.174-1.684-16.348 5.49-20.49l21.037-12.146c33.839-19.54 77.048-7.968 96.59 25.88l12.146 21.037c4.142 7.174 1.684 16.348-5.49 20.49zm248.208-34.771-12.146 21.037c-19.531 33.829-62.732 45.43-96.59 25.88l-21.037-12.146c-7.174-4.142-9.632-13.316-5.49-20.49l12.146-21.037c19.539-33.843 62.744-45.422 96.59-25.88l21.037 12.146c7.174 4.142 9.632 13.315 5.49 20.49z"/></g></svg>