<svg width="322" height="326" viewBox="0 0 322 326" fill="none" xmlns="http://www.w3.org/2000/svg">
<g filter="url(#filter0_d)">
<circle cx="161" cy="161" r="158.5" fill="#E5E5E5" stroke="white" stroke-width="5"/>
<circle cx="161" cy="161" r="150" fill="#E04006"/>
<g filter="url(#filter1_d)">
<path d="M141.27 155.73H149.09C173.623 155.73 185.89 144 185.89 120.54C185.89 109.193 183.513 100.99 178.76 95.93C174.007 90.7167 166.493 88.11 156.22 88.11C149.627 88.11 144.643 88.4167 141.27 89.03V155.73ZM137.36 81.9L163.12 81.21C199.613 81.21 217.86 94.32 217.86 120.54C217.86 132.193 213.72 141.7 205.44 149.06C197.16 156.42 186.503 160.1 173.47 160.1H168.18C185.66 162.4 197.62 167.69 204.06 175.97C210.653 184.25 213.95 196.823 213.95 213.69C213.95 224.117 216.097 230.48 220.39 232.78C221.923 233.7 224.147 234.16 227.06 234.16C230.127 234.16 234.267 232.933 239.48 230.48L239.71 236C231.43 239.527 222.997 241.29 214.41 241.29C197.237 241.29 186.887 234.85 183.36 221.97C182.133 216.603 181.52 209.933 181.52 201.96C181.52 193.833 180.983 187.623 179.91 183.33C178.99 178.883 177.533 175.28 175.54 172.52C171.093 165.773 162.737 162.4 150.47 162.4H141.27V228.41L158.75 230.48V236H93.89V230.48L110.91 228.64V89.49L91.13 86.73V80.98C104.01 81.5933 115.587 81.9 125.86 81.9H137.36Z" fill="white"/>
<path d="M141.27 155.73H137.27V159.73H141.27V155.73ZM178.76 95.93L175.804 98.625L175.824 98.647L175.845 98.6687L178.76 95.93ZM141.27 89.03L140.554 85.0945L137.27 85.6917V89.03H141.27ZM137.36 81.9V85.9H137.414L137.467 85.8986L137.36 81.9ZM163.12 81.21V77.21H163.066L163.013 77.2114L163.12 81.21ZM205.44 149.06L202.783 146.07L202.783 146.07L205.44 149.06ZM168.18 160.1V156.1L167.658 164.066L168.18 160.1ZM204.06 175.97L200.903 178.426L200.917 178.444L200.931 178.462L204.06 175.97ZM220.39 232.78L222.448 229.35L222.365 229.3L222.279 229.254L220.39 232.78ZM239.48 230.48L243.477 230.313L243.226 224.296L237.777 226.861L239.48 230.48ZM239.71 236L241.277 239.68L243.822 238.596L243.707 235.833L239.71 236ZM183.36 221.97L179.461 222.861L179.48 222.944L179.502 223.026L183.36 221.97ZM179.91 183.33L175.993 184.14L176.01 184.221L176.029 184.3L179.91 183.33ZM175.54 172.52L172.2 174.721L172.247 174.793L172.297 174.862L175.54 172.52ZM141.27 162.4V158.4H137.27V162.4H141.27ZM141.27 228.41H137.27V231.964L140.8 232.382L141.27 228.41ZM158.75 230.48H162.75V226.926L159.22 226.508L158.75 230.48ZM158.75 236V240H162.75V236H158.75ZM93.89 236H89.89V240H93.89V236ZM93.89 230.48L93.4601 226.503L89.89 226.889V230.48H93.89ZM110.91 228.64L111.34 232.617L114.91 232.231V228.64H110.91ZM110.91 89.49H114.91V86.0094L111.463 85.5284L110.91 89.49ZM91.13 86.73H87.13V90.2106L90.5772 90.6916L91.13 86.73ZM91.13 80.98L91.3203 76.9845L87.13 76.785V80.98H91.13ZM141.27 159.73H149.09V151.73H141.27V159.73ZM149.09 159.73C161.93 159.73 172.302 156.663 179.454 149.823C186.641 142.952 189.89 132.933 189.89 120.54H181.89C181.89 131.607 179.006 139.183 173.926 144.042C168.812 148.932 160.784 151.73 149.09 151.73V159.73ZM189.89 120.54C189.89 108.786 187.454 99.3422 181.675 93.1913L175.845 98.6687C179.573 102.638 181.89 109.601 181.89 120.54H189.89ZM181.716 93.235C175.913 86.8709 167.098 84.11 156.22 84.11V92.11C165.889 92.11 172.1 94.5624 175.804 98.625L181.716 93.235ZM156.22 84.11C149.563 84.11 144.29 84.4153 140.554 85.0945L141.986 92.9655C144.996 92.418 149.69 92.11 156.22 92.11V84.11ZM137.27 89.03V155.73H145.27V89.03H137.27ZM137.467 85.8986L163.227 85.2086L163.013 77.2114L137.253 77.9014L137.467 85.8986ZM163.12 85.21C181.008 85.21 193.704 88.4447 201.841 94.291C209.734 99.9617 213.86 108.472 213.86 120.54H221.86C221.86 106.388 216.863 95.2333 206.509 87.794C196.399 80.5303 181.725 77.21 163.12 77.21V85.21ZM213.86 120.54C213.86 131.118 210.16 139.513 202.783 146.07L208.097 152.05C217.28 143.887 221.86 133.269 221.86 120.54H213.86ZM202.783 146.07C195.361 152.667 185.707 156.1 173.47 156.1V164.1C187.3 164.1 198.959 160.173 208.097 152.05L202.783 146.07ZM173.47 156.1H168.18V164.1H173.47V156.1ZM167.658 164.066C184.763 166.316 195.429 171.388 200.903 178.426L207.217 173.514C199.811 163.992 186.557 158.484 168.702 156.134L167.658 164.066ZM200.931 178.462C206.712 185.721 209.95 197.227 209.95 213.69H217.95C217.95 196.42 214.595 182.779 207.189 173.478L200.931 178.462ZM209.95 213.69C209.95 219.125 210.503 223.805 211.77 227.561C213.044 231.337 215.165 234.519 218.501 236.306L222.279 229.254C221.321 228.741 220.223 227.591 219.35 225.004C218.47 222.396 217.95 218.681 217.95 213.69H209.95ZM218.332 236.21C220.763 237.669 223.832 238.16 227.06 238.16V230.16C224.462 230.16 223.083 229.731 222.448 229.35L218.332 236.21ZM227.06 238.16C231.031 238.16 235.825 236.621 241.183 234.099L237.777 226.861C232.708 229.246 229.223 230.16 227.06 230.16V238.16ZM235.483 230.647L235.713 236.167L243.707 235.833L243.477 230.313L235.483 230.647ZM238.143 232.32C230.334 235.646 222.432 237.29 214.41 237.29V245.29C223.561 245.29 232.526 243.408 241.277 239.68L238.143 232.32ZM214.41 237.29C206.279 237.29 200.213 235.759 195.881 233.064C191.646 230.429 188.743 226.483 187.218 220.914L179.502 223.026C181.504 230.337 185.539 236.051 191.654 239.856C197.672 243.601 205.368 245.29 214.41 245.29V237.29ZM187.259 221.079C186.122 216.103 185.52 209.754 185.52 201.96H177.52C177.52 210.112 178.145 217.104 179.461 222.861L187.259 221.079ZM185.52 201.96C185.52 193.73 184.984 187.132 183.791 182.36L176.029 184.3C176.983 188.115 177.52 193.937 177.52 201.96H185.52ZM183.827 182.52C182.829 177.696 181.197 173.521 178.783 170.178L172.297 174.862C173.87 177.039 175.151 180.071 175.993 184.14L183.827 182.52ZM178.88 170.319C173.364 161.949 163.346 158.4 150.47 158.4V166.4C162.127 166.4 168.823 169.597 172.2 174.721L178.88 170.319ZM150.47 158.4H141.27V166.4H150.47V158.4ZM137.27 162.4V228.41H145.27V162.4H137.27ZM140.8 232.382L158.28 234.452L159.22 226.508L141.74 224.438L140.8 232.382ZM154.75 230.48V236H162.75V230.48H154.75ZM158.75 232H93.89V240H158.75V232ZM97.89 236V230.48H89.89V236H97.89ZM94.3199 234.457L111.34 232.617L110.48 224.663L93.4601 226.503L94.3199 234.457ZM114.91 228.64V89.49H106.91V228.64H114.91ZM111.463 85.5284L91.6828 82.7684L90.5772 90.6916L110.357 93.4516L111.463 85.5284ZM95.13 86.73V80.98H87.13V86.73H95.13ZM90.9397 84.9755C103.868 85.5911 115.51 85.9 125.86 85.9V77.9C115.664 77.9 104.152 77.5956 91.3203 76.9845L90.9397 84.9755ZM125.86 85.9H137.36V77.9H125.86V85.9Z" fill="white"/>
</g>
</g>
<defs>
<filter id="filter0_d" x="0" y="0" width="322" height="326" filterUnits="userSpaceOnUse" color-interpolation-filters="sRGB">
<feFlood flood-opacity="0" result="BackgroundImageFix"/>
<feColorMatrix in="SourceAlpha" type="matrix" values="0 0 0 0 0 0 0 0 0 0 0 0 0 0 0 0 0 0 127 0"/>
<feOffset dy="4"/>
<feColorMatrix type="matrix" values="0 0 0 0 0 0 0 0 0 0 0 0 0 0 0 0 0 0 0.15 0"/>
<feBlend mode="normal" in2="BackgroundImageFix" result="effect1_dropShadow"/>
<feBlend mode="normal" in="SourceGraphic" in2="effect1_dropShadow" result="shape"/>
</filter>
<filter id="filter1_d" x="83.13" y="76.785" width="164.692" height="176.505" filterUnits="userSpaceOnUse" color-interpolation-filters="sRGB">
<feFlood flood-opacity="0" result="BackgroundImageFix"/>
<feColorMatrix in="SourceAlpha" type="matrix" values="0 0 0 0 0 0 0 0 0 0 0 0 0 0 0 0 0 0 127 0"/>
<feOffset dy="4"/>
<feGaussianBlur stdDeviation="2"/>
<feColorMatrix type="matrix" values="0 0 0 0 0 0 0 0 0 0 0 0 0 0 0 0 0 0 0.25 0"/>
<feBlend mode="normal" in2="BackgroundImageFix" result="effect1_dropShadow"/>
<feBlend mode="normal" in="SourceGraphic" in2="effect1_dropShadow" result="shape"/>
</filter>
</defs>
</svg>
