<svg width="1434" height="337" viewBox="0 0 1434 337" fill="none" xmlns="http://www.w3.org/2000/svg">
<g filter="url(#filter0_d)">
<path d="M268 63H1374C1407.14 63 1434 89.8629 1434 123V238C1434 271.137 1407.14 298 1374 298H268V63Z" fill="#FBFBFB"/>
<path d="M270.5 65.5H1374C1405.76 65.5 1431.5 91.2436 1431.5 123V238C1431.5 269.756 1405.76 295.5 1374 295.5H270.5V65.5Z" stroke="#FBFBFB" stroke-width="5"/>
</g>
<circle cx="168.5" cy="168.5" r="163.5" stroke="#FBFBFB" stroke-width="10"/>
<g filter="url(#filter1_d)">
<circle cx="169" cy="169" r="158.5" fill="#E5E5E5" stroke="white" stroke-width="5"/>
<circle cx="169" cy="169" r="150" fill="#FBFBFB"/>
<g filter="url(#filter2_d)">
<path d="M149.27 163.73H157.09C181.623 163.73 193.89 152 193.89 128.54C193.89 117.193 191.513 108.99 186.76 103.93C182.007 98.7167 174.493 96.11 164.22 96.11C157.627 96.11 152.643 96.4167 149.27 97.03V163.73ZM145.36 89.9L171.12 89.21C207.613 89.21 225.86 102.32 225.86 128.54C225.86 140.193 221.72 149.7 213.44 157.06C205.16 164.42 194.503 168.1 181.47 168.1H176.18C193.66 170.4 205.62 175.69 212.06 183.97C218.653 192.25 221.95 204.823 221.95 221.69C221.95 232.117 224.097 238.48 228.39 240.78C229.923 241.7 232.147 242.16 235.06 242.16C238.127 242.16 242.267 240.933 247.48 238.48L247.71 244C239.43 247.527 230.997 249.29 222.41 249.29C205.237 249.29 194.887 242.85 191.36 229.97C190.133 224.603 189.52 217.933 189.52 209.96C189.52 201.833 188.983 195.623 187.91 191.33C186.99 186.883 185.533 183.28 183.54 180.52C179.093 173.773 170.737 170.4 158.47 170.4H149.27V236.41L166.75 238.48V244H101.89V238.48L118.91 236.64V97.49L99.13 94.73V88.98C112.01 89.5933 123.587 89.9 133.86 89.9H145.36Z" fill="white"/>
<path d="M149.27 163.73H145.27V167.73H149.27V163.73ZM186.76 103.93L183.804 106.625L183.824 106.647L183.845 106.669L186.76 103.93ZM149.27 97.03L148.554 93.0945L145.27 93.6917V97.03H149.27ZM145.36 89.9V93.9H145.414L145.467 93.8986L145.36 89.9ZM171.12 89.21V85.21H171.066L171.013 85.2114L171.12 89.21ZM213.44 157.06L210.783 154.07L210.783 154.07L213.44 157.06ZM176.18 168.1V164.1L175.658 172.066L176.18 168.1ZM212.06 183.97L208.903 186.426L208.917 186.444L208.931 186.462L212.06 183.97ZM228.39 240.78L230.448 237.35L230.365 237.3L230.279 237.254L228.39 240.78ZM247.48 238.48L251.477 238.313L251.226 232.296L245.777 234.861L247.48 238.48ZM247.71 244L249.277 247.68L251.822 246.596L251.707 243.833L247.71 244ZM191.36 229.97L187.461 230.861L187.48 230.944L187.502 231.026L191.36 229.97ZM187.91 191.33L183.993 192.14L184.01 192.221L184.029 192.3L187.91 191.33ZM183.54 180.52L180.2 182.721L180.247 182.793L180.297 182.862L183.54 180.52ZM149.27 170.4V166.4H145.27V170.4H149.27ZM149.27 236.41H145.27V239.964L148.8 240.382L149.27 236.41ZM166.75 238.48H170.75V234.926L167.22 234.508L166.75 238.48ZM166.75 244V248H170.75V244H166.75ZM101.89 244H97.89V248H101.89V244ZM101.89 238.48L101.46 234.503L97.89 234.889V238.48H101.89ZM118.91 236.64L119.34 240.617L122.91 240.231V236.64H118.91ZM118.91 97.49H122.91V94.0094L119.463 93.5284L118.91 97.49ZM99.13 94.73H95.13V98.2106L98.5772 98.6916L99.13 94.73ZM99.13 88.98L99.3203 84.9845L95.13 84.785V88.98H99.13ZM149.27 167.73H157.09V159.73H149.27V167.73ZM157.09 167.73C169.93 167.73 180.302 164.663 187.454 157.823C194.641 150.952 197.89 140.933 197.89 128.54H189.89C189.89 139.607 187.006 147.183 181.926 152.042C176.812 156.932 168.784 159.73 157.09 159.73V167.73ZM197.89 128.54C197.89 116.786 195.454 107.342 189.675 101.191L183.845 106.669C187.573 110.638 189.89 117.601 189.89 128.54H197.89ZM189.716 101.235C183.913 94.8709 175.098 92.11 164.22 92.11V100.11C173.889 100.11 180.1 102.562 183.804 106.625L189.716 101.235ZM164.22 92.11C157.563 92.11 152.29 92.4153 148.554 93.0945L149.986 100.965C152.996 100.418 157.69 100.11 164.22 100.11V92.11ZM145.27 97.03V163.73H153.27V97.03H145.27ZM145.467 93.8986L171.227 93.2086L171.013 85.2114L145.253 85.9014L145.467 93.8986ZM171.12 93.21C189.008 93.21 201.704 96.4447 209.841 102.291C217.734 107.962 221.86 116.472 221.86 128.54H229.86C229.86 114.388 224.863 103.233 214.509 95.794C204.399 88.5303 189.725 85.21 171.12 85.21V93.21ZM221.86 128.54C221.86 139.118 218.16 147.513 210.783 154.07L216.097 160.05C225.28 151.887 229.86 141.269 229.86 128.54H221.86ZM210.783 154.07C203.361 160.667 193.707 164.1 181.47 164.1V172.1C195.3 172.1 206.959 168.173 216.097 160.05L210.783 154.07ZM181.47 164.1H176.18V172.1H181.47V164.1ZM175.658 172.066C192.763 174.316 203.429 179.388 208.903 186.426L215.217 181.514C207.811 171.992 194.557 166.484 176.702 164.134L175.658 172.066ZM208.931 186.462C214.712 193.721 217.95 205.227 217.95 221.69H225.95C225.95 204.42 222.595 190.779 215.189 181.478L208.931 186.462ZM217.95 221.69C217.95 227.125 218.503 231.805 219.77 235.561C221.044 239.337 223.165 242.519 226.501 244.306L230.279 237.254C229.321 236.741 228.223 235.591 227.35 233.004C226.47 230.396 225.95 226.681 225.95 221.69H217.95ZM226.332 244.21C228.763 245.669 231.832 246.16 235.06 246.16V238.16C232.462 238.16 231.083 237.731 230.448 237.35L226.332 244.21ZM235.06 246.16C239.031 246.16 243.825 244.621 249.183 242.099L245.777 234.861C240.708 237.246 237.223 238.16 235.06 238.16V246.16ZM243.483 238.647L243.713 244.167L251.707 243.833L251.477 238.313L243.483 238.647ZM246.143 240.32C238.334 243.646 230.432 245.29 222.41 245.29V253.29C231.561 253.29 240.526 251.408 249.277 247.68L246.143 240.32ZM222.41 245.29C214.279 245.29 208.213 243.759 203.881 241.064C199.646 238.429 196.743 234.483 195.218 228.914L187.502 231.026C189.504 238.337 193.539 244.051 199.654 247.856C205.672 251.601 213.368 253.29 222.41 253.29V245.29ZM195.259 229.079C194.122 224.103 193.52 217.754 193.52 209.96H185.52C185.52 218.112 186.145 225.104 187.461 230.861L195.259 229.079ZM193.52 209.96C193.52 201.73 192.984 195.132 191.791 190.36L184.029 192.3C184.983 196.115 185.52 201.937 185.52 209.96H193.52ZM191.827 190.52C190.829 185.696 189.197 181.521 186.783 178.178L180.297 182.862C181.87 185.039 183.151 188.071 183.993 192.14L191.827 190.52ZM186.88 178.319C181.364 169.949 171.346 166.4 158.47 166.4V174.4C170.127 174.4 176.823 177.597 180.2 182.721L186.88 178.319ZM158.47 166.4H149.27V174.4H158.47V166.4ZM145.27 170.4V236.41H153.27V170.4H145.27ZM148.8 240.382L166.28 242.452L167.22 234.508L149.74 232.438L148.8 240.382ZM162.75 238.48V244H170.75V238.48H162.75ZM166.75 240H101.89V248H166.75V240ZM105.89 244V238.48H97.89V244H105.89ZM102.32 242.457L119.34 240.617L118.48 232.663L101.46 234.503L102.32 242.457ZM122.91 236.64V97.49H114.91V236.64H122.91ZM119.463 93.5284L99.6828 90.7684L98.5772 98.6916L118.357 101.452L119.463 93.5284ZM103.13 94.73V88.98H95.13V94.73H103.13ZM98.9397 92.9755C111.868 93.5911 123.51 93.9 133.86 93.9V85.9C123.664 85.9 112.152 85.5956 99.3203 84.9845L98.9397 92.9755ZM133.86 93.9H145.36V85.9H133.86V93.9Z" fill="white"/>
</g>
</g>
<g filter="url(#filter3_d)">
<path d="M388.547 219H363.347V127.594H408.288C412.52 127.594 416.604 128.102 420.539 129.117C424.475 130.09 427.945 131.656 430.949 133.814C433.996 135.93 436.408 138.681 438.186 142.066C440.005 145.452 440.915 149.557 440.915 154.381C440.915 158.147 440.111 161.702 438.503 165.045C436.937 168.346 434.821 171.308 432.155 173.932C429.532 176.513 426.506 178.671 423.078 180.406C419.65 182.099 416.096 183.22 412.414 183.771C414.064 186.563 415.778 189.208 417.556 191.705C419.375 194.202 421.195 196.55 423.015 198.751C424.877 200.909 426.717 202.919 428.537 204.781C430.357 206.601 432.092 208.272 433.742 209.796C437.635 213.351 441.486 216.419 445.295 219H413.874C411.335 216.588 408.923 213.689 406.638 210.304C404.691 207.426 402.723 203.871 400.734 199.64C398.788 195.366 397.285 190.436 396.228 184.85H388.547V219ZM415.334 154.381C415.334 148.245 413.832 143.738 410.827 140.86C407.865 137.983 403.4 136.544 397.434 136.544H388.547V176.217H397.434C400.607 176.217 403.316 175.624 405.559 174.439C407.844 173.212 409.706 171.604 411.145 169.615C412.583 167.584 413.641 165.257 414.318 162.633C414.995 160.009 415.334 157.258 415.334 154.381ZM470.749 184.215C473.373 184.807 475.996 185.273 478.62 185.611C481.244 185.95 483.889 186.119 486.555 186.119C489.348 186.119 491.929 185.865 494.299 185.357C496.711 184.807 498.785 183.919 500.52 182.691C502.297 181.422 503.693 179.75 504.709 177.677C505.725 175.603 506.232 173.022 506.232 169.933C506.232 167.436 505.894 165.151 505.217 163.077C504.54 161.004 503.524 159.226 502.17 157.745C500.858 156.264 499.229 155.121 497.282 154.317C495.336 153.471 493.072 153.048 490.49 153.048C488.078 153.048 485.899 153.492 483.952 154.381C482.048 155.27 480.355 156.476 478.874 157.999C477.435 159.48 476.187 161.215 475.129 163.204C474.113 165.193 473.267 167.267 472.59 169.425C471.913 171.583 471.426 173.762 471.13 175.963C470.834 178.163 470.686 180.237 470.686 182.184C470.686 182.522 470.686 182.861 470.686 183.199C470.686 183.538 470.707 183.876 470.749 184.215ZM523.625 169.742C523.625 172.747 523.138 175.434 522.165 177.804C521.192 180.131 519.859 182.184 518.166 183.961C516.516 185.738 514.59 187.241 512.39 188.468C510.189 189.695 507.84 190.711 505.344 191.515C502.847 192.276 500.266 192.826 497.6 193.165C494.976 193.504 492.416 193.673 489.919 193.673C486.745 193.673 483.614 193.461 480.524 193.038C477.435 192.573 474.388 191.853 471.384 190.88C471.849 193.673 472.59 196.339 473.605 198.878C474.621 201.375 475.975 203.575 477.668 205.479C479.361 207.341 481.434 208.823 483.889 209.923C486.385 211.023 489.326 211.573 492.712 211.573C494.955 211.573 497.092 211.235 499.123 210.558C501.154 209.881 503.016 208.928 504.709 207.701C506.402 206.474 507.883 205.014 509.152 203.321C510.464 201.629 511.522 199.745 512.326 197.672L521.594 201.1C520.197 204.443 518.272 207.341 515.817 209.796C513.405 212.208 510.655 214.218 507.565 215.826C504.519 217.392 501.26 218.556 497.79 219.317C494.362 220.079 490.956 220.46 487.57 220.46C481.984 220.46 476.822 219.529 472.082 217.667C467.342 215.763 463.259 213.118 459.831 209.732C456.403 206.347 453.716 202.306 451.77 197.608C449.823 192.911 448.85 187.77 448.85 182.184C448.85 176.598 449.823 171.456 451.77 166.759C453.716 162.062 456.403 158.02 459.831 154.635C463.259 151.249 467.342 148.626 472.082 146.764C476.822 144.859 481.984 143.907 487.57 143.907C490.279 143.907 493.05 144.098 495.886 144.479C498.721 144.859 501.472 145.473 504.138 146.319C506.804 147.123 509.322 148.181 511.691 149.493C514.061 150.805 516.114 152.434 517.849 154.381C519.626 156.285 521.022 158.507 522.038 161.046C523.096 163.585 523.625 166.484 523.625 169.742ZM600.114 195.577C600.114 198.793 599.649 201.65 598.718 204.146C597.787 206.643 596.517 208.823 594.909 210.685C593.301 212.504 591.397 214.049 589.196 215.318C586.996 216.546 584.626 217.54 582.087 218.302C579.59 219.063 576.966 219.614 574.216 219.952C571.465 220.291 568.736 220.46 566.027 220.46C562.388 220.46 559.172 220.227 556.379 219.762C553.586 219.296 550.92 218.556 548.381 217.54C545.842 216.482 543.303 215.128 540.764 213.478C538.267 211.827 535.474 209.817 532.385 207.447L544.89 197.228C546.032 199.386 547.535 201.354 549.396 203.131C551.301 204.866 553.269 206.368 555.3 207.638C557.331 208.907 559.299 209.881 561.203 210.558C563.107 211.235 564.652 211.573 565.837 211.573C566.81 211.573 567.91 211.552 569.138 211.51C570.365 211.425 571.613 211.298 572.883 211.129C574.152 210.917 575.401 210.621 576.628 210.24C577.855 209.859 578.934 209.352 579.865 208.717C580.839 208.04 581.6 207.215 582.15 206.241C582.743 205.226 583.039 204.02 583.039 202.623C583.039 201.184 582.658 199.936 581.896 198.878C581.177 197.778 580.225 196.826 579.04 196.021C577.855 195.217 576.501 194.54 574.978 193.99C573.454 193.44 571.91 192.953 570.344 192.53C568.82 192.107 567.339 191.747 565.9 191.451C564.462 191.113 563.213 190.795 562.155 190.499C560.209 189.949 558.156 189.399 555.998 188.849C553.84 188.256 551.703 187.6 549.587 186.881C547.471 186.119 545.44 185.23 543.493 184.215C541.589 183.199 539.896 181.993 538.415 180.597C536.976 179.158 535.812 177.486 534.924 175.582C534.077 173.635 533.654 171.371 533.654 168.79C533.654 164.05 534.585 160.094 536.447 156.92C538.352 153.704 540.848 151.144 543.938 149.239C547.027 147.293 550.539 145.917 554.475 145.113C558.41 144.309 562.409 143.907 566.472 143.907C569.265 143.907 572.206 144.203 575.295 144.796C578.384 145.346 581.389 146.192 584.309 147.335C587.229 148.435 589.958 149.789 592.497 151.397C595.036 153.006 597.152 154.846 598.845 156.92L586.34 167.203C585.409 164.664 584.182 162.485 582.658 160.665C581.177 158.845 579.548 157.364 577.771 156.222C576.035 155.037 574.237 154.169 572.375 153.619C570.555 153.069 568.863 152.794 567.297 152.794C565.773 152.794 564.06 152.857 562.155 152.984C560.251 153.111 558.452 153.471 556.76 154.063C555.109 154.656 553.692 155.566 552.507 156.793C551.364 157.978 550.793 159.628 550.793 161.744C550.793 163.268 551.132 164.579 551.809 165.68C552.528 166.738 553.459 167.669 554.602 168.473C555.744 169.234 557.035 169.89 558.474 170.44C559.955 170.948 561.457 171.414 562.98 171.837C564.504 172.218 565.985 172.556 567.424 172.853C568.863 173.149 570.153 173.466 571.296 173.805C573.243 174.355 575.295 174.926 577.453 175.519C579.654 176.069 581.812 176.725 583.928 177.486C586.044 178.206 588.075 179.073 590.021 180.089C592.01 181.062 593.745 182.268 595.227 183.707C596.708 185.146 597.893 186.839 598.781 188.785C599.67 190.689 600.114 192.953 600.114 195.577ZM631.345 184.215C633.968 184.807 636.592 185.273 639.216 185.611C641.84 185.95 644.484 186.119 647.15 186.119C649.943 186.119 652.525 185.865 654.895 185.357C657.307 184.807 659.38 183.919 661.115 182.691C662.893 181.422 664.289 179.75 665.305 177.677C666.32 175.603 666.828 173.022 666.828 169.933C666.828 167.436 666.49 165.151 665.812 163.077C665.135 161.004 664.12 159.226 662.766 157.745C661.454 156.264 659.825 155.121 657.878 154.317C655.931 153.471 653.667 153.048 651.086 153.048C648.674 153.048 646.494 153.492 644.548 154.381C642.644 155.27 640.951 156.476 639.47 157.999C638.031 159.48 636.783 161.215 635.725 163.204C634.709 165.193 633.863 167.267 633.186 169.425C632.508 171.583 632.022 173.762 631.726 175.963C631.429 178.163 631.281 180.237 631.281 182.184C631.281 182.522 631.281 182.861 631.281 183.199C631.281 183.538 631.302 183.876 631.345 184.215ZM684.221 169.742C684.221 172.747 683.734 175.434 682.761 177.804C681.787 180.131 680.454 182.184 678.762 183.961C677.111 185.738 675.186 187.241 672.985 188.468C670.785 189.695 668.436 190.711 665.939 191.515C663.443 192.276 660.861 192.826 658.195 193.165C655.572 193.504 653.011 193.673 650.515 193.673C647.341 193.673 644.209 193.461 641.12 193.038C638.031 192.573 634.984 191.853 631.979 190.88C632.445 193.673 633.186 196.339 634.201 198.878C635.217 201.375 636.571 203.575 638.264 205.479C639.956 207.341 642.03 208.823 644.484 209.923C646.981 211.023 649.922 211.573 653.308 211.573C655.55 211.573 657.688 211.235 659.719 210.558C661.75 209.881 663.612 208.928 665.305 207.701C666.997 206.474 668.479 205.014 669.748 203.321C671.06 201.629 672.118 199.745 672.922 197.672L682.189 201.1C680.793 204.443 678.868 207.341 676.413 209.796C674.001 212.208 671.25 214.218 668.161 215.826C665.114 217.392 661.856 218.556 658.386 219.317C654.958 220.079 651.551 220.46 648.166 220.46C642.58 220.46 637.417 219.529 632.678 217.667C627.938 215.763 623.854 213.118 620.427 209.732C616.999 206.347 614.312 202.306 612.365 197.608C610.419 192.911 609.445 187.77 609.445 182.184C609.445 176.598 610.419 171.456 612.365 166.759C614.312 162.062 616.999 158.02 620.427 154.635C623.854 151.249 627.938 148.626 632.678 146.764C637.417 144.859 642.58 143.907 648.166 143.907C650.874 143.907 653.646 144.098 656.481 144.479C659.317 144.859 662.067 145.473 664.733 146.319C667.399 147.123 669.917 148.181 672.287 149.493C674.657 150.805 676.709 152.434 678.444 154.381C680.222 156.285 681.618 158.507 682.634 161.046C683.692 163.585 684.221 166.484 684.221 169.742ZM759.948 152.159L747.888 172.154C747.38 170.462 746.724 168.557 745.92 166.441C745.116 164.326 744.121 162.358 742.937 160.538C741.752 158.676 740.334 157.132 738.684 155.904C737.033 154.635 735.129 154 732.971 154C730.982 154 729.247 154.508 727.766 155.523C726.327 156.539 725.1 157.872 724.084 159.522C723.068 161.131 722.222 162.971 721.545 165.045C720.91 167.076 720.402 169.15 720.021 171.266C719.683 173.339 719.45 175.349 719.323 177.296C719.196 179.2 719.133 180.851 719.133 182.247V219H697.614V145.685H705.866L714.562 162.76C715.747 160.009 717.102 157.491 718.625 155.206C720.148 152.879 721.905 150.89 723.894 149.239C725.882 147.547 728.125 146.235 730.622 145.304C733.161 144.373 736.018 143.907 739.191 143.907C740.842 143.907 742.683 144.055 744.714 144.352C746.745 144.605 748.734 145.071 750.681 145.748C752.627 146.383 754.426 147.229 756.076 148.287C757.727 149.345 759.017 150.636 759.948 152.159ZM806.667 219H787.37L760.71 145.685H782.165L801.716 204.083L820.695 145.685H835.549L806.667 219ZM1056.32 219H1034.8V154.19H1021.47V145.685H1034.8V118.707H1056.32V145.685H1078.54V154.19H1056.32V219ZM1111.04 127.975C1111.04 129.583 1110.72 131.106 1110.08 132.545C1109.49 133.984 1108.67 135.232 1107.61 136.29C1106.55 137.348 1105.3 138.194 1103.86 138.829C1102.43 139.422 1100.9 139.718 1099.29 139.718C1097.69 139.718 1096.16 139.422 1094.72 138.829C1093.33 138.194 1092.1 137.348 1091.04 136.29C1089.98 135.232 1089.14 133.984 1088.5 132.545C1087.91 131.106 1087.61 129.583 1087.61 127.975C1087.61 126.367 1087.91 124.864 1088.5 123.468C1089.14 122.029 1089.98 120.781 1091.04 119.723C1092.1 118.665 1093.33 117.84 1094.72 117.247C1096.16 116.612 1097.69 116.295 1099.29 116.295C1100.9 116.295 1102.43 116.612 1103.86 117.247C1105.3 117.84 1106.55 118.665 1107.61 119.723C1108.67 120.781 1109.49 122.029 1110.08 123.468C1110.72 124.864 1111.04 126.367 1111.04 127.975ZM1110.08 219H1088.57V145.748H1110.08V219ZM1205.55 182.184C1205.55 185.992 1205.05 189.568 1204.03 192.911C1203.01 196.254 1201.6 199.343 1199.78 202.179C1198 205.014 1195.84 207.574 1193.3 209.859C1190.76 212.102 1187.97 214.007 1184.92 215.572C1181.92 217.138 1178.68 218.344 1175.21 219.19C1171.78 220.037 1168.25 220.46 1164.61 220.46C1160.97 220.46 1157.44 220.037 1154.01 219.19C1150.58 218.344 1147.35 217.138 1144.3 215.572C1141.29 214.007 1138.52 212.102 1135.98 209.859C1133.44 207.574 1131.26 205.014 1129.45 202.179C1127.67 199.343 1126.27 196.254 1125.26 192.911C1124.24 189.526 1123.73 185.95 1123.73 182.184C1123.73 178.417 1124.24 174.863 1125.26 171.52C1126.27 168.134 1127.67 165.024 1129.45 162.188C1131.26 159.353 1133.44 156.814 1135.98 154.571C1138.52 152.286 1141.29 150.361 1144.3 148.795C1147.35 147.229 1150.58 146.023 1154.01 145.177C1157.44 144.33 1160.97 143.907 1164.61 143.907C1168.25 143.907 1171.78 144.33 1175.21 145.177C1178.68 146.023 1181.92 147.229 1184.92 148.795C1187.97 150.361 1190.76 152.286 1193.3 154.571C1195.84 156.814 1198 159.353 1199.78 162.188C1201.6 165.024 1203.01 168.134 1204.03 171.52C1205.05 174.863 1205.55 178.417 1205.55 182.184ZM1183.72 182.184C1183.72 180.152 1183.59 178.015 1183.34 175.772C1183.13 173.487 1182.74 171.266 1182.19 169.107C1181.64 166.907 1180.88 164.812 1179.91 162.823C1178.98 160.792 1177.81 159.036 1176.42 157.555C1175.02 156.031 1173.35 154.825 1171.4 153.937C1169.46 153.006 1167.19 152.54 1164.61 152.54C1162.16 152.54 1159.98 153.006 1158.07 153.937C1156.17 154.868 1154.5 156.116 1153.06 157.682C1151.66 159.205 1150.48 160.982 1149.5 163.014C1148.57 165.045 1147.81 167.161 1147.22 169.361C1146.63 171.52 1146.2 173.72 1145.95 175.963C1145.7 178.163 1145.57 180.237 1145.57 182.184C1145.57 184.13 1145.7 186.225 1145.95 188.468C1146.2 190.668 1146.63 192.869 1147.22 195.069C1147.81 197.27 1148.57 199.386 1149.5 201.417C1150.48 203.406 1151.66 205.183 1153.06 206.749C1154.5 208.272 1156.17 209.5 1158.07 210.431C1159.98 211.362 1162.16 211.827 1164.61 211.827C1167.15 211.827 1169.39 211.383 1171.34 210.494C1173.29 209.563 1174.96 208.336 1176.35 206.812C1177.79 205.289 1178.98 203.533 1179.91 201.544C1180.84 199.555 1181.58 197.46 1182.13 195.26C1182.72 193.059 1183.13 190.838 1183.34 188.595C1183.59 186.352 1183.72 184.215 1183.72 182.184ZM1294.1 176.979C1294.1 181.93 1293.49 187.092 1292.26 192.467C1291.08 197.841 1289.41 203.11 1287.25 208.272C1285.09 213.435 1282.51 218.281 1279.5 222.809C1276.5 227.379 1273.2 231.314 1269.6 234.615L1261.54 230.235C1262.68 228.119 1263.76 225.75 1264.78 223.126C1265.79 220.502 1266.7 217.73 1267.51 214.811C1268.35 211.848 1269.09 208.801 1269.73 205.67C1270.41 202.538 1270.96 199.449 1271.38 196.402C1271.84 193.313 1272.18 190.33 1272.39 187.452C1272.65 184.532 1272.78 181.824 1272.78 179.327C1272.78 177.677 1272.71 175.921 1272.58 174.059C1272.46 172.154 1272.18 170.271 1271.76 168.409C1271.38 166.505 1270.85 164.685 1270.17 162.95C1269.5 161.215 1268.59 159.692 1267.44 158.38C1266.34 157.068 1264.99 156.01 1263.38 155.206C1261.82 154.402 1259.95 154 1257.79 154C1255.68 154 1253.8 154.487 1252.15 155.46C1250.5 156.391 1249.04 157.639 1247.77 159.205C1246.5 160.729 1245.4 162.485 1244.46 164.474C1243.58 166.463 1242.84 168.515 1242.24 170.631C1241.69 172.704 1241.29 174.757 1241.04 176.788C1240.78 178.819 1240.66 180.639 1240.66 182.247V219H1219.14V145.685H1227.39L1237.23 162.76C1238.41 159.924 1239.89 157.343 1241.67 155.016C1243.45 152.688 1245.46 150.699 1247.7 149.049C1249.94 147.398 1252.42 146.129 1255.13 145.24C1257.88 144.352 1260.84 143.907 1264.02 143.907C1269.09 143.907 1273.52 144.732 1277.28 146.383C1281.05 148.033 1284.18 150.34 1286.68 153.302C1289.17 156.222 1291.04 159.713 1292.26 163.775C1293.49 167.796 1294.1 172.197 1294.1 176.979ZM1371.35 195.577C1371.35 198.793 1370.89 201.65 1369.96 204.146C1369.03 206.643 1367.76 208.823 1366.15 210.685C1364.54 212.504 1362.64 214.049 1360.44 215.318C1358.24 216.546 1355.87 217.54 1353.33 218.302C1350.83 219.063 1348.21 219.614 1345.46 219.952C1342.71 220.291 1339.98 220.46 1337.27 220.46C1333.63 220.46 1330.41 220.227 1327.62 219.762C1324.83 219.296 1322.16 218.556 1319.62 217.54C1317.08 216.482 1314.54 215.128 1312 213.478C1309.51 211.827 1306.71 209.817 1303.62 207.447L1316.13 197.228C1317.27 199.386 1318.77 201.354 1320.64 203.131C1322.54 204.866 1324.51 206.368 1326.54 207.638C1328.57 208.907 1330.54 209.881 1332.44 210.558C1334.35 211.235 1335.89 211.573 1337.08 211.573C1338.05 211.573 1339.15 211.552 1340.38 211.51C1341.61 211.425 1342.85 211.298 1344.12 211.129C1345.39 210.917 1346.64 210.621 1347.87 210.24C1349.1 209.859 1350.17 209.352 1351.11 208.717C1352.08 208.04 1352.84 207.215 1353.39 206.241C1353.98 205.226 1354.28 204.02 1354.28 202.623C1354.28 201.184 1353.9 199.936 1353.14 198.878C1352.42 197.778 1351.47 196.826 1350.28 196.021C1349.1 195.217 1347.74 194.54 1346.22 193.99C1344.69 193.44 1343.15 192.953 1341.58 192.53C1340.06 192.107 1338.58 191.747 1337.14 191.451C1335.7 191.113 1334.45 190.795 1333.4 190.499C1331.45 189.949 1329.4 189.399 1327.24 188.849C1325.08 188.256 1322.94 187.6 1320.83 186.881C1318.71 186.119 1316.68 185.23 1314.73 184.215C1312.83 183.199 1311.14 181.993 1309.66 180.597C1308.22 179.158 1307.05 177.486 1306.16 175.582C1305.32 173.635 1304.89 171.371 1304.89 168.79C1304.89 164.05 1305.83 160.094 1307.69 156.92C1309.59 153.704 1312.09 151.144 1315.18 149.239C1318.27 147.293 1321.78 145.917 1325.71 145.113C1329.65 144.309 1333.65 143.907 1337.71 143.907C1340.5 143.907 1343.45 144.203 1346.54 144.796C1349.62 145.346 1352.63 146.192 1355.55 147.335C1358.47 148.435 1361.2 149.789 1363.74 151.397C1366.28 153.006 1368.39 154.846 1370.08 156.92L1357.58 167.203C1356.65 164.664 1355.42 162.485 1353.9 160.665C1352.42 158.845 1350.79 157.364 1349.01 156.222C1347.28 155.037 1345.48 154.169 1343.62 153.619C1341.8 153.069 1340.1 152.794 1338.54 152.794C1337.01 152.794 1335.3 152.857 1333.4 152.984C1331.49 153.111 1329.69 153.471 1328 154.063C1326.35 154.656 1324.93 155.566 1323.75 156.793C1322.6 157.978 1322.03 159.628 1322.03 161.744C1322.03 163.268 1322.37 164.579 1323.05 165.68C1323.77 166.738 1324.7 167.669 1325.84 168.473C1326.98 169.234 1328.28 169.89 1329.71 170.44C1331.19 170.948 1332.7 171.414 1334.22 171.837C1335.74 172.218 1337.23 172.556 1338.66 172.853C1340.1 173.149 1341.39 173.466 1342.54 173.805C1344.48 174.355 1346.54 174.926 1348.69 175.519C1350.89 176.069 1353.05 176.725 1355.17 177.486C1357.28 178.206 1359.32 179.073 1361.26 180.089C1363.25 181.062 1364.99 182.268 1366.47 183.707C1367.95 185.146 1369.13 186.839 1370.02 188.785C1370.91 190.689 1371.35 192.953 1371.35 195.577Z" fill="white"/>
</g>
<g clip-path="url(#clip0)" filter="url(#filter4_d)">
<path d="M892.249 238.089C887.254 232.565 879.118 222.855 872.184 211.285C865.212 199.652 859.679 186.505 859.434 174.033C859.227 163.503 862.732 150.979 867.6 138.904C872.439 126.902 878.483 115.679 883.05 107.852C884.625 105.153 885.126 104.35 885.846 103.646C887.474 102.056 890.161 101.12 892.425 101.356C893.419 101.46 894.417 101.818 897.606 103.065L951 106.5L988.545 138.614C991.733 139.86 992.71 140.273 993.511 140.872C995.335 142.234 996.675 144.743 996.793 147.016C996.845 148.022 996.667 148.952 995.995 152.003C994.043 160.852 990.874 173.199 986.29 185.301C981.678 197.476 975.761 209.058 968.468 216.656C959.829 225.655 946.847 231.564 933.834 235.385C920.892 239.185 908.326 240.803 900.91 241.475C899.459 241.606 899.046 241.636 898.37 241.577C897.093 241.468 895.059 240.673 894.046 239.887C893.51 239.471 893.227 239.17 892.249 238.089Z" fill="#FBFBFB"/>
<path d="M892.249 238.089C887.254 232.565 879.118 222.855 872.184 211.285C865.212 199.652 859.679 186.505 859.434 174.033C859.227 163.503 862.732 150.979 867.6 138.904C872.439 126.902 878.483 115.679 883.05 107.852C884.625 105.153 885.126 104.35 885.846 103.646C887.474 102.056 890.161 101.12 892.425 101.356C893.419 101.46 894.417 101.818 897.606 103.065L951 106.5L988.545 138.614C991.733 139.86 992.71 140.273 993.511 140.872C995.335 142.234 996.675 144.743 996.793 147.016C996.845 148.022 996.667 148.952 995.995 152.003C994.043 160.852 990.874 173.199 986.29 185.301C981.678 197.476 975.761 209.058 968.468 216.656C959.829 225.655 946.847 231.564 933.834 235.385C920.892 239.185 908.326 240.803 900.91 241.475C899.459 241.606 899.046 241.636 898.37 241.577C897.093 241.468 895.059 240.673 894.046 239.887C893.51 239.471 893.227 239.17 892.249 238.089Z" stroke="#D8D8D8" stroke-width="15"/>
<path d="M892.249 238.089C887.254 232.565 879.118 222.855 872.184 211.285C865.212 199.652 859.679 186.505 859.434 174.033C859.227 163.503 862.732 150.979 867.6 138.904C872.439 126.902 878.483 115.679 883.05 107.852C884.625 105.153 885.126 104.35 885.846 103.646C887.474 102.056 890.161 101.12 892.425 101.356C893.419 101.46 894.417 101.818 897.606 103.065L951 106.5L988.545 138.614C991.733 139.86 992.71 140.273 993.511 140.872C995.335 142.234 996.675 144.743 996.793 147.016C996.845 148.022 996.667 148.952 995.995 152.003C994.043 160.852 990.874 173.199 986.29 185.301C981.678 197.476 975.761 209.058 968.468 216.656C959.829 225.655 946.847 231.564 933.834 235.385C920.892 239.185 908.326 240.803 900.91 241.475C899.459 241.606 899.046 241.636 898.37 241.577C897.093 241.468 895.059 240.673 894.046 239.887C893.51 239.471 893.227 239.17 892.249 238.089Z" stroke="url(#paint0_linear)" stroke-width="15"/>
<g filter="url(#filter5_d)">
<path fill-rule="evenodd" clip-rule="evenodd" d="M951.952 194.494C939.228 201.116 925.583 202.751 913.28 197.941C900.977 193.132 892.058 182.677 887.199 169.182C885.395 190.122 892.694 208.057 907.121 213.697C921.547 219.336 939.075 211.107 951.952 194.494Z" fill="#F7F7F7"/>
</g>
<g filter="url(#filter6_d)">
<path fill-rule="evenodd" clip-rule="evenodd" d="M887.66 134.366C893.737 133.667 901.06 135.489 907.718 139.871C914.375 144.253 918.945 150.258 920.707 156.116C914.629 156.815 907.306 154.993 900.649 150.611C893.991 146.229 889.421 140.224 887.66 134.366Z" fill="#F7F7F7"/>
<g filter="url(#filter7_d)">
<path fill-rule="evenodd" clip-rule="evenodd" d="M936.232 160.752C941.585 157.791 949.05 156.689 956.875 158.206C964.699 159.723 971.211 163.536 975.07 168.283C969.717 171.243 962.251 172.346 954.427 170.828C946.602 169.311 940.09 165.498 936.232 160.752Z" fill="#F7F7F7"/>
</g>
</g>
</g>
<defs>
<filter id="filter0_d" x="268" y="63" width="1166" height="239" filterUnits="userSpaceOnUse" color-interpolation-filters="sRGB">
<feFlood flood-opacity="0" result="BackgroundImageFix"/>
<feColorMatrix in="SourceAlpha" type="matrix" values="0 0 0 0 0 0 0 0 0 0 0 0 0 0 0 0 0 0 127 0"/>
<feOffset dy="4"/>
<feColorMatrix type="matrix" values="0 0 0 0 0 0 0 0 0 0 0 0 0 0 0 0 0 0 0.15 0"/>
<feBlend mode="normal" in2="BackgroundImageFix" result="effect1_dropShadow"/>
<feBlend mode="normal" in="SourceGraphic" in2="effect1_dropShadow" result="shape"/>
</filter>
<filter id="filter1_d" x="8" y="8" width="322" height="326" filterUnits="userSpaceOnUse" color-interpolation-filters="sRGB">
<feFlood flood-opacity="0" result="BackgroundImageFix"/>
<feColorMatrix in="SourceAlpha" type="matrix" values="0 0 0 0 0 0 0 0 0 0 0 0 0 0 0 0 0 0 127 0"/>
<feOffset dy="4"/>
<feColorMatrix type="matrix" values="0 0 0 0 0 0 0 0 0 0 0 0 0 0 0 0 0 0 0.15 0"/>
<feBlend mode="normal" in2="BackgroundImageFix" result="effect1_dropShadow"/>
<feBlend mode="normal" in="SourceGraphic" in2="effect1_dropShadow" result="shape"/>
</filter>
<filter id="filter2_d" x="91.13" y="84.785" width="164.692" height="176.505" filterUnits="userSpaceOnUse" color-interpolation-filters="sRGB">
<feFlood flood-opacity="0" result="BackgroundImageFix"/>
<feColorMatrix in="SourceAlpha" type="matrix" values="0 0 0 0 0 0 0 0 0 0 0 0 0 0 0 0 0 0 127 0"/>
<feOffset dy="4"/>
<feGaussianBlur stdDeviation="2"/>
<feColorMatrix type="matrix" values="0 0 0 0 0 0 0 0 0 0 0 0 0 0 0 0 0 0 0.25 0"/>
<feBlend mode="normal" in2="BackgroundImageFix" result="effect1_dropShadow"/>
<feBlend mode="normal" in="SourceGraphic" in2="effect1_dropShadow" result="shape"/>
</filter>
<filter id="filter3_d" x="359.347" y="116.295" width="1016.01" height="126.32" filterUnits="userSpaceOnUse" color-interpolation-filters="sRGB">
<feFlood flood-opacity="0" result="BackgroundImageFix"/>
<feColorMatrix in="SourceAlpha" type="matrix" values="0 0 0 0 0 0 0 0 0 0 0 0 0 0 0 0 0 0 127 0"/>
<feOffset dy="4"/>
<feGaussianBlur stdDeviation="2"/>
<feColorMatrix type="matrix" values="0 0 0 0 0 0 0 0 0 0 0 0 0 0 0 0 0 0 0.25 0"/>
<feBlend mode="normal" in2="BackgroundImageFix" result="effect1_dropShadow"/>
<feBlend mode="normal" in="SourceGraphic" in2="effect1_dropShadow" result="shape"/>
</filter>
<filter id="filter4_d" x="801" y="63" width="236.794" height="237.159" filterUnits="userSpaceOnUse" color-interpolation-filters="sRGB">
<feFlood flood-opacity="0" result="BackgroundImageFix"/>
<feColorMatrix in="SourceAlpha" type="matrix" values="0 0 0 0 0 0 0 0 0 0 0 0 0 0 0 0 0 0 127 0"/>
<feOffset/>
<feGaussianBlur stdDeviation="0.5"/>
<feColorMatrix type="matrix" values="0 0 0 0 0 0 0 0 0 0 0 0 0 0 0 0 0 0 0.25 0"/>
<feBlend mode="normal" in2="BackgroundImageFix" result="effect1_dropShadow"/>
<feBlend mode="normal" in="SourceGraphic" in2="effect1_dropShadow" result="shape"/>
</filter>
<filter id="filter5_d" x="870.45" y="153.146" width="83.5013" height="78.8998" filterUnits="userSpaceOnUse" color-interpolation-filters="sRGB">
<feFlood flood-opacity="0" result="BackgroundImageFix"/>
<feColorMatrix in="SourceAlpha" type="matrix" values="0 0 0 0 0 0 0 0 0 0 0 0 0 0 0 0 0 0 127 0"/>
<feOffset dy="1"/>
<feGaussianBlur stdDeviation="1"/>
<feColorMatrix type="matrix" values="0 0 0 0 0 0 0 0 0 0 0 0 0 0 0 0 0 0 0.25 0"/>
<feBlend mode="normal" in2="BackgroundImageFix" result="effect1_dropShadow"/>
<feBlend mode="normal" in="SourceGraphic" in2="effect1_dropShadow" result="shape"/>
</filter>
<filter id="filter6_d" x="884" y="124.903" width="94.0569" height="57.9233" filterUnits="userSpaceOnUse" color-interpolation-filters="sRGB">
<feFlood flood-opacity="0" result="BackgroundImageFix"/>
<feColorMatrix in="SourceAlpha" type="matrix" values="0 0 0 0 0 0 0 0 0 0 0 0 0 0 0 0 0 0 127 0"/>
<feOffset dy="1"/>
<feGaussianBlur stdDeviation="1"/>
<feColorMatrix type="matrix" values="0 0 0 0 0 0 0 0 0 0 0 0 0 0 0 0 0 0 0.25 0"/>
<feBlend mode="normal" in2="BackgroundImageFix" result="effect1_dropShadow"/>
<feBlend mode="normal" in="SourceGraphic" in2="effect1_dropShadow" result="shape"/>
</filter>
<filter id="filter7_d" x="933.244" y="148.208" width="44.8125" height="34.6178" filterUnits="userSpaceOnUse" color-interpolation-filters="sRGB">
<feFlood flood-opacity="0" result="BackgroundImageFix"/>
<feColorMatrix in="SourceAlpha" type="matrix" values="0 0 0 0 0 0 0 0 0 0 0 0 0 0 0 0 0 0 127 0"/>
<feOffset dy="1"/>
<feGaussianBlur stdDeviation="1"/>
<feColorMatrix type="matrix" values="0 0 0 0 0 0 0 0 0 0 0 0 0 0 0 0 0 0 0.25 0"/>
<feBlend mode="normal" in2="BackgroundImageFix" result="effect1_dropShadow"/>
<feBlend mode="normal" in="SourceGraphic" in2="effect1_dropShadow" result="shape"/>
</filter>
<linearGradient id="paint0_linear" x1="961.739" y1="114.616" x2="876.874" y2="226.91" gradientUnits="userSpaceOnUse">
<stop stop-color="white"/>
<stop offset="1" stop-color="white" stop-opacity="0"/>
</linearGradient>
<clipPath id="clip0">
<rect width="166.817" height="168.691" fill="white" transform="translate(903.708 64) rotate(37.0796)"/>
</clipPath>
</defs>
</svg>
