<svg width="356" height="360" viewBox="0 0 356 360" fill="none" xmlns="http://www.w3.org/2000/svg">
<path d="M204.488 311.142C188.877 308.165 162.53 302.1 135.838 291.324C109 280.489 82.6627 265.224 66.1986 244.306C52.297 226.644 42.1513 200.81 34.9028 173.989C27.6972 147.328 23.5475 120.443 21.2532 101.241C20.462 94.6197 20.2801 92.6078 20.6011 90.4833C21.3269 85.6798 24.698 80.6306 28.8562 78.1187C30.6819 77.0159 32.8422 76.3429 39.8751 74.3623L240.445 17.8765C247.478 15.8958 249.672 15.3426 251.805 15.3305C256.663 15.3032 262.173 17.8511 265.299 21.5699C266.682 23.2145 267.576 25.0257 270.357 31.0871C278.42 48.6637 288.911 73.7632 296.678 100.266C304.491 126.928 309.319 154.26 306.678 176.581C303.549 203.017 289.049 229.782 271.81 253.031C254.665 276.153 235.354 295.076 223.591 305.762C221.289 307.853 220.624 308.435 219.399 309.205C217.083 310.662 212.597 311.926 209.861 311.891C208.414 311.873 207.544 311.724 204.488 311.142Z" fill="#E04006" stroke="white" stroke-width="15"/>
<g filter="url(#filter0_d)">
<path fill-rule="evenodd" clip-rule="evenodd" d="M250.043 160.1C236.901 187.746 215.774 208.086 188.638 215.728C161.503 223.37 132.865 217.045 107.228 200.321C131.101 238.295 166.606 259.438 198.424 250.477C230.242 241.516 249.496 204.952 250.043 160.1Z" fill="white"/>
</g>
<g filter="url(#filter1_d)">
<path fill-rule="evenodd" clip-rule="evenodd" d="M177.228 105.806C184.208 95.5943 196.692 86.8184 212.206 82.4493C227.72 78.0803 242.949 79.0514 254.232 84.1193C247.252 94.3309 234.768 103.107 219.254 107.476C203.74 111.845 188.511 110.874 177.228 105.806Z" fill="white"/>
</g>
<g filter="url(#filter2_d)">
<path fill-rule="evenodd" clip-rule="evenodd" d="M61.721 138.336C68.7014 128.124 81.1855 119.348 96.6992 114.979C112.213 110.61 127.442 111.581 138.726 116.649C131.745 126.861 119.261 135.637 103.747 140.006C88.2336 144.375 73.0045 143.404 61.721 138.336Z" fill="white"/>
</g>
<defs>
<filter id="filter0_d" x="105.228" y="159.1" width="166.604" height="114.487" filterUnits="userSpaceOnUse" color-interpolation-filters="sRGB">
<feFlood flood-opacity="0" result="BackgroundImageFix"/>
<feColorMatrix in="SourceAlpha" type="matrix" values="0 0 0 0 0 0 0 0 0 0 0 0 0 0 0 0 0 0 127 0"/>
<feOffset dy="1"/>
<feGaussianBlur stdDeviation="1"/>
<feColorMatrix type="matrix" values="0 0 0 0 0 0 0 0 0 0 0 0 0 0 0 0 0 0 0.25 0"/>
<feBlend mode="normal" in2="BackgroundImageFix" result="effect1_dropShadow"/>
<feBlend mode="normal" in="SourceGraphic" in2="effect1_dropShadow" result="shape"/>
</filter>
<filter id="filter1_d" x="171.704" y="70.6061" width="88.0526" height="50.713" filterUnits="userSpaceOnUse" color-interpolation-filters="sRGB">
<feFlood flood-opacity="0" result="BackgroundImageFix"/>
<feColorMatrix in="SourceAlpha" type="matrix" values="0 0 0 0 0 0 0 0 0 0 0 0 0 0 0 0 0 0 127 0"/>
<feOffset dy="1"/>
<feGaussianBlur stdDeviation="1"/>
<feColorMatrix type="matrix" values="0 0 0 0 0 0 0 0 0 0 0 0 0 0 0 0 0 0 0.25 0"/>
<feBlend mode="normal" in2="BackgroundImageFix" result="effect1_dropShadow"/>
<feBlend mode="normal" in="SourceGraphic" in2="effect1_dropShadow" result="shape"/>
</filter>
<filter id="filter2_d" x="56.197" y="103.136" width="88.0526" height="50.713" filterUnits="userSpaceOnUse" color-interpolation-filters="sRGB">
<feFlood flood-opacity="0" result="BackgroundImageFix"/>
<feColorMatrix in="SourceAlpha" type="matrix" values="0 0 0 0 0 0 0 0 0 0 0 0 0 0 0 0 0 0 127 0"/>
<feOffset dy="1"/>
<feGaussianBlur stdDeviation="1"/>
<feColorMatrix type="matrix" values="0 0 0 0 0 0 0 0 0 0 0 0 0 0 0 0 0 0 0.25 0"/>
<feBlend mode="normal" in2="BackgroundImageFix" result="effect1_dropShadow"/>
<feBlend mode="normal" in="SourceGraphic" in2="effect1_dropShadow" result="shape"/>
</filter>
</defs>
</svg>
