<svg width="552" height="451" viewBox="0 0 552 451" fill="none" xmlns="http://www.w3.org/2000/svg">
<path d="M400.488 311.142C384.877 308.165 358.53 302.1 331.838 291.324C305 280.489 278.663 265.224 262.199 244.306C248.297 226.644 238.151 200.81 230.903 173.989C223.697 147.328 219.547 120.443 217.253 101.241C216.462 94.6196 216.28 92.6077 216.601 90.4833C217.327 85.6798 220.698 80.6305 224.856 78.1187C226.682 77.0158 228.842 76.3428 235.875 74.3622L436.445 17.8764C443.478 15.8958 445.672 15.3425 447.805 15.3305C452.663 15.3031 458.173 17.851 461.299 21.5698C462.682 23.2145 463.576 25.0257 466.357 31.087C474.42 48.6637 484.911 73.7631 492.678 100.266C500.491 126.928 505.319 154.26 502.678 176.581C499.549 203.017 485.049 229.782 467.81 253.031C450.665 276.153 431.354 295.076 419.591 305.762C417.289 307.853 416.624 308.434 415.399 309.205C413.083 310.662 408.597 311.925 405.861 311.891C404.414 311.873 403.544 311.724 400.488 311.142Z" fill="#C51800" stroke="white" stroke-width="15"/>
<g filter="url(#filter0_d)">
<path fill-rule="evenodd" clip-rule="evenodd" d="M446.043 160.1C432.901 187.746 411.773 208.086 384.638 215.728C357.503 223.37 328.865 217.045 303.228 200.32C327.101 238.295 362.606 259.438 394.424 250.477C426.242 241.516 445.496 204.952 446.043 160.1Z" fill="white"/>
</g>
<g filter="url(#filter1_d)">
<path fill-rule="evenodd" clip-rule="evenodd" d="M373.228 105.806C380.208 95.5942 392.692 86.8184 408.206 82.4493C423.72 78.0802 438.949 79.0513 450.232 84.1193C443.252 94.3308 430.768 103.107 415.254 107.476C399.74 111.845 384.511 110.874 373.228 105.806Z" fill="white"/>
</g>
<g filter="url(#filter2_d)">
<path fill-rule="evenodd" clip-rule="evenodd" d="M257.721 138.336C264.701 128.124 277.186 119.348 292.699 114.979C308.213 110.61 323.442 111.581 334.726 116.649C327.745 126.861 315.261 135.636 299.747 140.006C284.234 144.375 269.005 143.404 257.721 138.336Z" fill="white"/>
</g>
<g filter="url(#filter3_d)">
<path d="M152.956 410.759C149.975 411.359 148.484 411.658 146.28 411.708C142.101 411.802 136.178 410.198 132.617 408.008C130.74 406.852 129.604 405.842 127.333 403.82C103.197 382.331 47.7806 327.454 40.5043 270.833C34.3868 223.229 60.0176 156.648 75.9551 120.968C78.5358 115.19 79.8262 112.301 81.976 109.691C86.4818 104.22 94.0761 100.616 101.163 100.585C104.545 100.57 107.877 101.472 114.542 103.277L315.668 157.749C322.333 159.554 325.665 160.457 328.577 162.176C334.68 165.78 339.417 172.724 340.546 179.721C341.085 183.059 340.741 186.204 340.053 192.494C335.806 231.341 324.334 301.757 295.029 339.767C260.174 384.977 184.638 404.388 152.956 410.759Z" fill="#C51800"/>
<path d="M132.321 398.218C120.451 387.651 100.952 368.923 83.5756 345.973C66.1043 322.899 51.3362 296.28 47.9432 269.877C45.0782 247.584 49.6315 220.204 57.1771 193.466C64.678 166.886 74.9162 141.683 82.803 124.026C85.5228 117.937 86.3993 116.117 87.7652 114.459C90.8537 110.709 96.3385 108.106 101.196 108.085C103.329 108.075 105.529 108.607 112.581 110.517L313.707 164.988C320.76 166.898 322.927 167.55 324.763 168.634C328.947 171.104 332.368 176.119 333.142 180.915C333.484 183.036 333.323 185.05 332.598 191.679C330.496 210.903 326.616 237.828 319.678 264.56C312.699 291.452 302.813 317.387 289.089 335.188C272.836 356.27 246.653 371.798 219.925 382.901C193.342 393.945 167.057 400.273 151.477 403.406C148.427 404.02 147.558 404.177 146.111 404.21C143.376 404.272 138.877 403.053 136.547 401.62C135.314 400.861 134.644 400.287 132.321 398.218Z" stroke="#F8F8F8" stroke-width="15"/>
</g>
<g filter="url(#filter4_d)">
<path fill-rule="evenodd" clip-rule="evenodd" d="M248.944 291.974C223.475 308.955 194.902 315.567 167.692 308.197C140.481 300.828 119.15 280.7 105.733 253.187C106.729 298.032 126.348 334.401 158.255 343.042C190.161 351.683 225.453 330.186 248.944 291.974Z" fill="white"/>
</g>
<g filter="url(#filter5_d)">
<path fill-rule="evenodd" clip-rule="evenodd" d="M214.321 208.003C225.553 202.822 240.771 201.698 256.328 205.912C271.885 210.125 284.456 218.775 291.539 228.916C280.307 234.097 265.088 235.221 249.531 231.007C233.974 226.794 221.403 218.144 214.321 208.003Z" fill="white"/>
</g>
<g filter="url(#filter6_d)">
<path fill-rule="evenodd" clip-rule="evenodd" d="M98.4934 176.633C109.726 171.452 124.944 170.328 140.501 174.542C156.058 178.755 168.629 187.405 175.712 197.546C164.479 202.727 149.261 203.851 133.704 199.637C118.147 195.424 105.576 186.774 98.4934 176.633Z" fill="white"/>
</g>
<defs>
<filter id="filter0_d" x="301.228" y="159.1" width="166.604" height="114.487" filterUnits="userSpaceOnUse" color-interpolation-filters="sRGB">
<feFlood flood-opacity="0" result="BackgroundImageFix"/>
<feColorMatrix in="SourceAlpha" type="matrix" values="0 0 0 0 0 0 0 0 0 0 0 0 0 0 0 0 0 0 127 0"/>
<feOffset dy="1"/>
<feGaussianBlur stdDeviation="1"/>
<feColorMatrix type="matrix" values="0 0 0 0 0 0 0 0 0 0 0 0 0 0 0 0 0 0 0.25 0"/>
<feBlend mode="normal" in2="BackgroundImageFix" result="effect1_dropShadow"/>
<feBlend mode="normal" in="SourceGraphic" in2="effect1_dropShadow" result="shape"/>
</filter>
<filter id="filter1_d" x="367.704" y="70.606" width="88.0526" height="50.713" filterUnits="userSpaceOnUse" color-interpolation-filters="sRGB">
<feFlood flood-opacity="0" result="BackgroundImageFix"/>
<feColorMatrix in="SourceAlpha" type="matrix" values="0 0 0 0 0 0 0 0 0 0 0 0 0 0 0 0 0 0 127 0"/>
<feOffset dy="1"/>
<feGaussianBlur stdDeviation="1"/>
<feColorMatrix type="matrix" values="0 0 0 0 0 0 0 0 0 0 0 0 0 0 0 0 0 0 0.25 0"/>
<feBlend mode="normal" in2="BackgroundImageFix" result="effect1_dropShadow"/>
<feBlend mode="normal" in="SourceGraphic" in2="effect1_dropShadow" result="shape"/>
</filter>
<filter id="filter2_d" x="252.197" y="103.136" width="88.0526" height="50.713" filterUnits="userSpaceOnUse" color-interpolation-filters="sRGB">
<feFlood flood-opacity="0" result="BackgroundImageFix"/>
<feColorMatrix in="SourceAlpha" type="matrix" values="0 0 0 0 0 0 0 0 0 0 0 0 0 0 0 0 0 0 127 0"/>
<feOffset dy="1"/>
<feGaussianBlur stdDeviation="1"/>
<feColorMatrix type="matrix" values="0 0 0 0 0 0 0 0 0 0 0 0 0 0 0 0 0 0 0.25 0"/>
<feBlend mode="normal" in2="BackgroundImageFix" result="effect1_dropShadow"/>
<feBlend mode="normal" in="SourceGraphic" in2="effect1_dropShadow" result="shape"/>
</filter>
<filter id="filter3_d" x="0.706909" y="93.0001" width="352.908" height="355.228" filterUnits="userSpaceOnUse" color-interpolation-filters="sRGB">
<feFlood flood-opacity="0" result="BackgroundImageFix"/>
<feColorMatrix in="SourceAlpha" type="matrix" values="0 0 0 0 0 0 0 0 0 0 0 0 0 0 0 0 0 0 127 0"/>
<feOffset/>
<feColorMatrix type="matrix" values="0 0 0 0 0 0 0 0 0 0 0 0 0 0 0 0 0 0 0.25 0"/>
<feBlend mode="normal" in2="BackgroundImageFix" result="effect1_dropShadow"/>
<feBlend mode="normal" in="SourceGraphic" in2="effect1_dropShadow" result="shape"/>
</filter>
<filter id="filter4_d" x="84.6493" y="252.187" width="166.294" height="113.248" filterUnits="userSpaceOnUse" color-interpolation-filters="sRGB">
<feFlood flood-opacity="0" result="BackgroundImageFix"/>
<feColorMatrix in="SourceAlpha" type="matrix" values="0 0 0 0 0 0 0 0 0 0 0 0 0 0 0 0 0 0 127 0"/>
<feOffset dy="1"/>
<feGaussianBlur stdDeviation="1"/>
<feColorMatrix type="matrix" values="0 0 0 0 0 0 0 0 0 0 0 0 0 0 0 0 0 0 0.25 0"/>
<feBlend mode="normal" in2="BackgroundImageFix" result="effect1_dropShadow"/>
<feBlend mode="normal" in="SourceGraphic" in2="effect1_dropShadow" result="shape"/>
</filter>
<filter id="filter5_d" x="208.922" y="194.455" width="88.0149" height="50.0092" filterUnits="userSpaceOnUse" color-interpolation-filters="sRGB">
<feFlood flood-opacity="0" result="BackgroundImageFix"/>
<feColorMatrix in="SourceAlpha" type="matrix" values="0 0 0 0 0 0 0 0 0 0 0 0 0 0 0 0 0 0 127 0"/>
<feOffset dy="1"/>
<feGaussianBlur stdDeviation="1"/>
<feColorMatrix type="matrix" values="0 0 0 0 0 0 0 0 0 0 0 0 0 0 0 0 0 0 0.25 0"/>
<feBlend mode="normal" in2="BackgroundImageFix" result="effect1_dropShadow"/>
<feBlend mode="normal" in="SourceGraphic" in2="effect1_dropShadow" result="shape"/>
</filter>
<filter id="filter6_d" x="93.095" y="163.085" width="88.0149" height="50.0092" filterUnits="userSpaceOnUse" color-interpolation-filters="sRGB">
<feFlood flood-opacity="0" result="BackgroundImageFix"/>
<feColorMatrix in="SourceAlpha" type="matrix" values="0 0 0 0 0 0 0 0 0 0 0 0 0 0 0 0 0 0 127 0"/>
<feOffset dy="1"/>
<feGaussianBlur stdDeviation="1"/>
<feColorMatrix type="matrix" values="0 0 0 0 0 0 0 0 0 0 0 0 0 0 0 0 0 0 0.25 0"/>
<feBlend mode="normal" in2="BackgroundImageFix" result="effect1_dropShadow"/>
<feBlend mode="normal" in="SourceGraphic" in2="effect1_dropShadow" result="shape"/>
</filter>
</defs>
</svg>
